<svg width="50" height="50" viewBox="0 0 50 50" fill="none" xmlns="http://www.w3.org/2000/svg">
<g clip-path="url(#clip0_2984_6)">
<path d="M25.5859 -0.000104683C26.1365 0.369277 26.4378 0.809693 26.7242 1.39642C26.765 1.47693 26.8059 1.55745 26.848 1.6404C26.9843 1.91006 27.1184 2.18076 27.2526 2.45152C27.3509 2.64717 27.4494 2.84274 27.548 3.03825C27.8184 3.57547 28.0869 4.11365 28.3551 4.65201C28.6149 5.17291 28.8762 5.69306 29.1374 6.21325C29.7046 7.3428 30.2701 8.47325 30.8347 9.60409C31.3288 10.5937 31.8235 11.5831 32.3187 12.5722C32.3852 12.7049 32.4516 12.8376 32.518 12.9703C32.6181 13.1702 32.7182 13.3701 32.8184 13.5701C33.749 15.4289 34.6791 17.288 35.6078 19.1478C35.6428 19.2179 35.6778 19.288 35.7139 19.3602C35.9982 19.9295 36.2824 20.4987 36.5667 21.068C37.6757 23.2888 38.7864 25.5087 39.8987 27.7278C41.1485 30.2212 42.397 32.7152 43.6435 35.2102C43.7764 35.4762 43.9093 35.7421 44.0422 36.0081C44.0749 36.0736 44.1076 36.1391 44.1413 36.2066C44.6354 37.1954 45.1305 38.1838 45.626 39.1719C46.1896 40.2954 46.7517 41.4197 47.312 42.5449C47.598 43.1191 47.8847 43.6929 48.173 44.2659C48.4368 44.7904 48.6989 45.3157 48.9595 45.8418C49.0542 46.032 49.1495 46.222 49.2455 46.4115C49.3759 46.6692 49.5039 46.9279 49.6312 47.187C49.6691 47.2604 49.707 47.3339 49.746 47.4095C50.0062 47.9483 50.0671 48.4275 49.9999 49.0233C49.8287 49.4515 49.512 49.7586 49.121 49.9999C48.8482 50.0468 48.6358 50.0654 48.3643 50.0606C48.29 50.0612 48.2156 50.0618 48.139 50.0625C47.8909 50.064 47.643 50.062 47.3949 50.06C47.2166 50.0603 47.0384 50.0609 46.8601 50.0616C46.3767 50.063 45.8933 50.0613 45.4099 50.0591C44.9039 50.0571 44.3979 50.0577 43.8919 50.0579C43.0423 50.0579 42.1927 50.056 41.3431 50.0528C40.3608 50.0492 39.3785 50.0484 38.3962 50.049C37.4512 50.0497 36.5062 50.0486 35.5611 50.0467C35.159 50.0459 34.7568 50.0456 34.3546 50.0458C33.8811 50.0459 33.4076 50.0445 32.9342 50.042C32.7604 50.0413 32.5866 50.0411 32.4127 50.0414C32.1756 50.0418 31.9385 50.0403 31.7013 50.0384C31.6325 50.0389 31.5636 50.0395 31.4927 50.04C31.0674 50.0341 30.804 49.9706 30.4687 49.7069C30.1626 49.3728 29.961 49.0206 29.7596 48.6163C29.7301 48.5574 29.7005 48.4984 29.6701 48.4377C29.5718 48.2414 29.4743 48.0447 29.3769 47.848C29.3063 47.7066 29.2357 47.5652 29.165 47.4238C29.013 47.1197 28.8615 46.8154 28.7102 46.5109C28.4701 46.0276 28.2292 45.5448 27.9881 45.062C27.606 44.2963 27.2244 43.5303 26.8431 42.7642C26.1628 41.3978 25.4817 40.0317 24.8003 38.6658C24.5618 38.1878 24.3236 37.7095 24.0856 37.2312C23.043 35.1353 23.043 35.1353 21.9592 33.0605C21.7074 32.5878 21.486 32.1029 21.2768 31.61C21.2368 31.5163 21.1968 31.4226 21.1555 31.326C17.8869 23.5781 17.5676 14.5992 20.7031 6.73818C21.3667 5.11211 22.119 3.54197 22.9614 2.00185C23 1.93056 23.0387 1.85927 23.0785 1.78582C23.6163 0.817211 24.2996 -0.351431 25.5859 -0.000104683Z" fill="#2584FF"/>
<path d="M14.3492 22.5526C18.2299 25.1661 20.3555 31.4401 21.2082 35.7384C21.9516 39.6539 21.8527 43.6371 20.6114 47.4427C20.5658 47.5833 20.5658 47.5833 20.5192 47.7267C19.9053 49.5191 19.9053 49.5191 19.0428 50.0001C18.777 50.037 18.5515 50.053 18.2867 50.0497C18.2124 50.0503 18.1382 50.0509 18.0616 50.0515C17.8138 50.0531 17.566 50.0519 17.3181 50.0506C17.1401 50.0512 16.962 50.0518 16.7839 50.0527C16.3008 50.0545 15.8178 50.0538 15.3348 50.0525C14.8291 50.0516 14.3234 50.0525 13.8178 50.0531C12.9686 50.0538 12.1194 50.0529 11.2702 50.051C10.2887 50.0489 9.30718 50.0496 8.32564 50.0517C7.48267 50.0535 6.63971 50.0537 5.79674 50.0527C5.29338 50.0521 4.79003 50.052 4.28666 50.0533C3.81341 50.0544 3.3402 50.0537 2.86695 50.0514C2.69334 50.0509 2.51973 50.051 2.34612 50.0519C2.10897 50.053 1.87195 50.0516 1.63481 50.0497C1.53195 50.051 1.53195 50.051 1.42702 50.0523C0.941818 50.0446 0.667164 49.9121 0.292772 49.6095C-0.0789421 49.1014 -0.066779 48.5545 -0.0001971 47.9493C0.116622 47.5727 0.286086 47.2325 0.466044 46.8824C0.516207 46.7806 0.56637 46.6788 0.618054 46.5739C0.756603 46.2938 0.89702 46.0148 1.03831 45.7361C1.19066 45.4345 1.34051 45.1316 1.49069 44.8289C1.78482 44.237 2.08124 43.6463 2.37848 43.0559C2.72483 42.3678 3.069 41.6787 3.41312 40.9895C4.02731 39.7597 4.64364 38.5309 5.26111 37.3027C5.85979 36.1119 6.45669 34.9202 7.05172 33.7275C7.70032 32.4275 8.3499 31.128 9.00119 29.8293C9.07067 29.6908 9.14016 29.5522 9.20964 29.4137C9.24383 29.3455 9.27801 29.2773 9.31323 29.2071C9.55369 28.7275 9.79347 28.2475 10.033 27.7675C10.325 27.1822 10.6182 26.5976 10.9128 26.0137C11.063 25.7159 11.2127 25.4179 11.361 25.1193C11.5223 24.7953 11.6854 24.4723 11.8491 24.1495C11.9185 24.0084 11.9185 24.0084 11.9893 23.8645C12.4936 22.8809 13.1832 22.1805 14.3492 22.5526Z" fill="#1771EB"/>
</g>
<defs>
<clipPath id="clip0_2984_6">
<rect width="50" height="50" fill="white"/>
</clipPath>
</defs>
</svg>
