<svg width="175" height="50" viewBox="0 0 175 50" fill="none" xmlns="http://www.w3.org/2000/svg">
<g clip-path="url(#clip0)">
<path d="M15.9944 34.1267L0 23.2021L25.7135 24.6821L15.9944 34.1267Z" fill="#4C4E50"/>
<path d="M16.8141 31.3572L4.49414 25.0635L23.9006 25.342L16.8141 31.3572Z" fill="#4BAFAA"/>
<path d="M13.0445 17.0194L10.7539 14.3301L25.4201 23.3689L13.0445 17.0194Z" fill="#808182"/>
<path d="M28.0278 9.07051L27.0893 5.66504L26.3496 22.8754L28.0278 9.07051Z" fill="#808182"/>
<path d="M18.1738 35.3592L27.8532 49.9995L26.867 25.3496L18.1738 35.3592Z" fill="#4C4E50"/>
<path d="M20.8457 33.8875L25.1088 43.6743L26.0393 27.1641L20.8457 33.8875Z" fill="#20E5E5"/>
<path d="M40.7135 23.4404L47.808 40.253L27.4551 25.1034L40.7135 23.4404Z" fill="#4C4E50"/>
<path d="M37.7635 24.9121L43.4662 33.935L29.2852 25.4452L37.7635 24.9121Z" fill="#FFF100"/>
<path d="M40.6746 21.0296L40.945 0L27.4082 23.7826L40.6746 21.0296Z" fill="#4C4E50"/>
<path d="M37.8578 20.1864L39.5678 6.45312L28.9102 22.6848L37.8578 20.1864Z" fill="#C1E846"/>
<path d="M60.4617 15.0218C59.4324 14.4294 58.2826 14.0773 57.0982 13.9919C55.9138 13.9065 54.7254 14.0899 53.6218 14.5284C52.7577 14.8713 51.9758 15.393 51.3274 16.0595C50.6791 16.7259 50.1789 17.522 49.8598 18.3954C49.5087 19.3368 49.3335 20.3347 49.3428 21.3394C49.3264 22.3716 49.5157 23.3967 49.8996 24.355C50.247 25.2225 50.7634 26.0123 51.4187 26.6784C52.0678 27.3222 52.8383 27.8306 53.6854 28.1742C54.56 28.5261 55.4946 28.7045 56.4373 28.6993C56.7987 28.6968 57.1597 28.6756 57.519 28.6357C57.8901 28.588 58.2639 28.5243 58.6404 28.4448C59.0063 28.3652 59.3562 28.2697 59.6903 28.1663C59.9871 28.0705 60.2725 27.9424 60.5413 27.7843L60.7003 30.4021C59.9787 30.7072 59.2139 30.8978 58.4336 30.967C57.6383 31.0386 56.9702 31.0784 56.4134 31.0784C55.0253 31.0965 53.6455 30.8619 52.3413 30.3862C51.1715 29.961 50.1059 29.2909 49.2155 28.4209C48.3378 27.5366 47.6527 26.48 47.2033 25.3177C46.7141 24.019 46.4739 22.6396 46.4955 21.2519C46.4746 19.8897 46.7261 18.5371 47.2351 17.2735C47.7029 16.1217 48.4105 15.0829 49.311 14.2261C50.2299 13.3673 51.3117 12.7018 52.4924 12.2687C53.7661 11.8037 55.1132 11.5719 56.4691 11.5845C57.1912 11.5821 57.9122 11.6407 58.6245 11.7595C59.3398 11.8821 60.0371 12.0932 60.7003 12.3881L60.4617 15.0218Z" fill="white" stroke="white" stroke-width="0.7"/>
<path d="M62.1078 23.8783C62.0979 22.8931 62.2677 21.9143 62.6089 20.99C62.9187 20.14 63.4038 19.3647 64.0326 18.7144C64.6612 18.0717 65.4133 17.5629 66.2436 17.2186C68.0872 16.4975 70.1345 16.4975 71.9781 17.2186C72.8105 17.5589 73.5634 18.0683 74.1891 18.7144C74.8101 19.3693 75.2918 20.1434 75.6048 20.99C75.9461 21.9143 76.1159 22.8931 76.1059 23.8783C76.1104 24.8335 75.935 25.7809 75.5889 26.6711C75.2594 27.5161 74.7768 28.293 74.1653 28.9627C73.5418 29.6234 72.7892 30.1488 71.9542 30.5063C71.0583 30.8941 70.091 31.0893 69.1148 31.0792C68.1384 31.0924 67.1704 30.8971 66.2754 30.5063C65.4417 30.1466 64.6895 29.6215 64.0644 28.9627C63.4404 28.298 62.9491 27.5202 62.6168 26.6711C62.2733 25.7804 62.1006 24.833 62.1078 23.8783V23.8783ZM64.804 23.8783C64.8066 24.497 64.8922 25.1125 65.0586 25.7084C65.2287 26.3034 65.4975 26.8655 65.8539 27.3713C66.2038 27.8647 66.6606 28.2727 67.1901 28.5648C67.7864 28.8681 68.4459 29.0262 69.1148 29.0262C69.7838 29.0262 70.4432 28.8681 71.0396 28.5648C71.5691 28.2727 72.0258 27.8647 72.3757 27.3713C72.7355 26.8675 73.0047 26.3047 73.1711 25.7084C73.3413 25.1133 73.427 24.4973 73.4256 23.8783C73.4271 23.233 73.3278 22.5914 73.1313 21.9767C72.9454 21.383 72.6633 20.8239 72.2962 20.3217C71.9402 19.8391 71.481 19.4422 70.9521 19.16C70.3924 18.8691 69.7694 18.7215 69.1387 18.7303C68.5077 18.7184 67.8839 18.8662 67.3253 19.16C66.7969 19.4462 66.3358 19.8423 65.9732 20.3217C65.598 20.8212 65.3102 21.3808 65.1222 21.9767C64.9215 22.591 64.8143 23.2321 64.804 23.8783Z" fill="white" stroke="white" stroke-width="0.7"/>
<path d="M85.866 16.9952H84.0367C83.2878 16.9767 82.5525 17.1968 81.937 17.6238C81.2904 18.0691 80.7743 18.6789 80.4417 19.3902H80.386V17.2578H78V30.7365H80.5372V24.5064C80.4611 23.1548 80.8177 21.8142 81.5552 20.6792C81.8685 20.192 82.296 19.7887 82.8005 19.5045C83.3051 19.2202 83.8714 19.0635 84.4503 19.0481H86.4386V16.9952H85.866Z" fill="white" stroke="white" stroke-width="0.7"/>
<path d="M96.229 28.8753C95.9038 28.9844 95.5619 29.0355 95.2189 29.0265C94.9395 29.0296 94.6624 28.9762 94.4041 28.8696C94.1458 28.7629 93.9117 28.6052 93.7157 28.4059C93.4913 28.1598 93.3192 27.8708 93.2098 27.5562C93.1004 27.2416 93.0561 26.9081 93.0795 26.5758V19.0488H96.7222V16.9959H93.0795V13.0176L90.5503 13.8132V16.9959H88.0449V19.0488H90.5503V27.085C90.5012 27.6433 90.5779 28.2054 90.7748 28.73C90.9716 29.2547 91.2835 29.7285 91.6876 30.1166C92.5707 30.803 93.673 31.1452 94.7895 31.0793C95.1826 31.0789 95.5746 31.0362 95.9586 30.952C96.3245 30.8725 96.6585 30.7849 96.9449 30.6974V28.5411C96.7203 28.6805 96.4801 28.7927 96.229 28.8753V28.8753Z" fill="white" stroke="white" stroke-width="0.7"/>
<path d="M98.3207 23.8785C98.3108 22.8933 98.4805 21.9145 98.8218 20.9902C99.1343 20.1432 99.6195 19.3705 100.247 18.7212C100.874 18.0719 101.629 17.5603 102.464 17.2188C104.305 16.4974 106.35 16.4974 108.191 17.2188C109.024 17.5573 109.778 18.0669 110.402 18.7146C111.026 19.3674 111.508 20.1422 111.818 20.9902C112.159 21.9145 112.329 22.8933 112.319 23.8785C112.326 24.8332 112.153 25.7807 111.81 26.6713C111.481 27.5183 110.995 28.2957 110.378 28.9629C109.756 29.6253 109.003 30.151 108.167 30.5065C107.268 30.8846 106.303 31.0794 105.328 31.0794C104.353 31.0794 103.387 30.8846 102.488 30.5065C101.656 30.1449 100.904 29.6201 100.277 28.9629C99.6562 28.2975 99.1676 27.5198 98.8377 26.6713C98.4916 25.7811 98.3162 24.8337 98.3207 23.8785V23.8785ZM101.025 23.8785C101.023 24.4975 101.109 25.1135 101.279 25.7086C101.446 26.305 101.715 26.8677 102.075 27.3715C102.425 27.8649 102.881 28.2729 103.411 28.565C104.006 28.8875 104.675 29.0467 105.352 29.0265C106.02 29.0451 106.682 28.8859 107.268 28.565C107.794 28.2704 108.248 27.8628 108.597 27.3715C108.953 26.8657 109.222 26.3036 109.392 25.7086C109.558 25.1127 109.644 24.4972 109.646 23.8785C109.645 23.2328 109.543 22.5912 109.344 21.9769C109.165 21.3805 108.882 20.8203 108.509 20.3219C108.154 19.8382 107.695 19.4411 107.165 19.1602C106.602 18.8775 105.981 18.7302 105.352 18.7302C104.722 18.7302 104.101 18.8775 103.538 19.1602C103.011 19.4444 102.552 19.8409 102.194 20.3219C101.816 20.8195 101.528 21.3797 101.343 21.9769C101.138 22.5903 101.031 23.2319 101.025 23.8785V23.8785Z" fill="white" stroke="white" stroke-width="0.7"/>
<path d="M114.236 16.9961H116.686V19.1842H116.742C117.122 18.3851 117.757 17.7355 118.547 17.3382C119.377 16.8983 120.304 16.6714 121.243 16.6778C121.973 16.6199 122.707 16.7336 123.385 17.0099C124.063 17.2862 124.667 17.7175 125.148 18.2691C126.044 19.5311 126.481 21.0609 126.389 22.6055V30.7771H123.86V23.6638C123.932 22.4255 123.72 21.1871 123.24 20.0435C123.01 19.6399 122.674 19.3065 122.269 19.0794C121.864 18.8523 121.405 18.7399 120.941 18.7545C120.294 18.7381 119.652 18.8801 119.072 19.1682C118.546 19.4421 118.095 19.841 117.76 20.3299C117.401 20.8749 117.148 21.482 117.012 22.1202C116.841 22.8718 116.758 23.6409 116.766 24.4117V30.7771H114.236V16.9961Z" fill="white" stroke="white" stroke-width="0.7"/>
<path d="M130.675 17.9741C131.327 17.5815 132.024 17.2689 132.751 17.0431C133.543 16.7925 134.37 16.669 135.201 16.6771C137.179 16.6771 138.594 17.1545 139.448 18.1093C140.39 19.3193 140.846 20.8372 140.728 22.3662V28.0552C140.728 28.8509 140.728 29.4477 140.728 29.8535C140.734 30.1547 140.76 30.4551 140.808 30.7526H138.422V28.9702H138.366C138.192 29.2213 137.992 29.4533 137.77 29.6625C137.497 29.9198 137.196 30.1441 136.871 30.3309C136.487 30.5525 136.079 30.7287 135.654 30.856C135.152 31.0092 134.629 31.0843 134.103 31.0788C133.42 31.0826 132.738 30.9997 132.075 30.8321C131.495 30.6802 130.954 30.4092 130.484 30.0365C130.034 29.6852 129.676 29.229 129.443 28.7077C129.189 28.0926 129.067 27.4313 129.085 26.7662C129.055 25.9984 129.276 25.2417 129.713 24.61C130.132 24.0327 130.676 23.5569 131.304 23.2176C131.95 22.8632 132.648 22.6109 133.372 22.4696C134.064 22.3198 134.771 22.2424 135.479 22.2389H136.823C137.221 22.2389 137.674 22.2389 138.175 22.2866C138.244 21.3344 137.982 20.3877 137.436 19.6052C137.086 19.2699 136.666 19.0155 136.207 18.8602C135.748 18.7048 135.261 18.6522 134.779 18.7061C134.048 18.7095 133.322 18.8359 132.632 19.0801C131.962 19.3122 131.337 19.6595 130.787 20.1065L130.675 17.9741ZM138.199 24.2042C137.929 24.2042 137.658 24.2042 137.404 24.2042H136.609C136.275 24.2042 135.813 24.2042 135.288 24.2679C134.746 24.3138 134.211 24.4288 133.698 24.61C133.206 24.778 132.756 25.0493 132.377 25.4057C132.088 25.7243 131.904 26.1238 131.848 26.5505C131.793 26.9772 131.869 27.4107 132.067 27.7927C132.382 28.339 132.894 28.7435 133.499 28.9225C133.785 29.0215 134.086 29.0726 134.39 29.0737C134.911 29.1097 135.435 29.0364 135.926 28.8582C136.418 28.6801 136.867 28.4012 137.245 28.0393C137.893 27.3401 138.241 26.4146 138.215 25.4614L138.199 24.2042Z" fill="white" stroke="white" stroke-width="0.7"/>
<path d="M146.106 19.8518H147.617C148.15 19.8509 148.683 19.803 149.208 19.7086C149.732 19.6128 150.241 19.4441 150.719 19.2073C151.167 18.9822 151.558 18.6585 151.864 18.2604C152.183 17.8348 152.346 17.3122 152.325 16.7805C152.339 16.3038 152.235 15.8311 152.023 15.404C151.841 15.0356 151.567 14.7204 151.228 14.489C150.868 14.2456 150.466 14.0703 150.043 13.9718C149.581 13.8661 149.109 13.8127 148.635 13.8126C147.856 13.8007 147.079 13.8998 146.328 14.107C145.684 14.2929 145.058 14.538 144.459 14.8391L144.292 12.452C145.018 12.1967 145.763 11.9972 146.519 11.8553C147.34 11.6993 148.173 11.6194 149.009 11.6166C149.813 11.6094 150.616 11.7084 151.395 11.911C152.103 12.0921 152.77 12.4081 153.359 12.8419C153.926 13.2612 154.389 13.8058 154.711 14.4333C155.058 15.1462 155.227 15.9324 155.204 16.7248C155.21 17.2716 155.102 17.8136 154.886 18.3161C154.673 18.7931 154.37 19.2251 153.996 19.5892C153.592 19.9722 153.13 20.2891 152.628 20.5281C152.14 20.7625 151.624 20.9336 151.092 21.0374V21.093C152.235 21.2843 153.295 21.8104 154.139 22.6048C154.542 23.0259 154.854 23.5262 155.054 24.0741C155.253 24.622 155.337 25.2055 155.3 25.7875C155.337 26.7151 155.116 27.6348 154.664 28.4451C154.258 29.1246 153.682 29.6867 152.993 30.0762C152.252 30.4814 151.444 30.7509 150.607 30.8718C149.703 31.0254 148.788 31.1026 147.871 31.1026C147.105 31.1003 146.34 31.023 145.589 30.8718C144.904 30.7404 144.227 30.5731 143.561 30.3706L143.72 27.8642C144.304 28.1527 144.914 28.387 145.541 28.5644C146.29 28.784 147.067 28.8939 147.847 28.8906C148.382 28.8885 148.915 28.8325 149.438 28.7235C149.957 28.6289 150.457 28.4487 150.918 28.1904C151.354 27.9436 151.73 27.6008 152.015 27.1879C152.312 26.7407 152.462 26.2124 152.445 25.6761C152.468 25.0713 152.334 24.4707 152.055 23.9336C151.8 23.4873 151.443 23.1081 151.013 22.8276C150.557 22.5395 150.049 22.3448 149.518 22.2547C148.936 22.1417 148.345 22.0857 147.752 22.0876H146.106V19.8518Z" fill="#2C9984"/>
<path d="M159.42 11.9193H164.988C166.321 11.9092 167.647 12.1245 168.909 12.5558C170.077 12.9518 171.157 13.5706 172.09 14.3779C173.004 15.1769 173.734 16.1651 174.23 17.2742C174.774 18.5006 175.046 19.831 175.025 21.1729C175.05 22.594 174.813 24.0075 174.325 25.3423C173.893 26.4793 173.211 27.5045 172.329 28.342C171.412 29.1676 170.326 29.7839 169.147 30.1481C167.796 30.569 166.387 30.7731 164.972 30.7528H159.404L159.42 11.9193ZM162.116 28.3817H164.948C167.262 28.3817 169.044 27.8009 170.285 26.6551C171.525 25.5094 172.146 23.7111 172.146 21.2844C172.162 20.2783 171.984 19.2786 171.621 18.3404C171.301 17.5206 170.812 16.7781 170.184 16.1622C169.555 15.5463 168.804 15.071 167.978 14.7678C167.114 14.4441 166.197 14.2822 165.274 14.2904H162.093L162.116 28.3817Z" fill="#2C9984"/>
</g>
<defs>
<clipPath id="clip0">
<rect width="175" height="50" fill="white"/>
</clipPath>
</defs>
</svg>
